<svg width="33" height="33" viewBox="0 0 33 33" fill="none" xmlns="http://www.w3.org/2000/svg">
<g clip-path="url(#clip0_285_59)">
<path d="M25.5609 25.3092H21.1159V18.4166C21.1159 16.773 21.0863 14.6572 18.804 14.6572C16.4888 14.6572 16.1346 16.448 16.1346 18.297V25.3088H11.6895V11.1348H15.9568V13.0718H16.0166C16.4436 12.3488 17.0607 11.7541 17.8021 11.3509C18.5436 10.9477 19.3816 10.7512 20.2269 10.7822C24.7321 10.7822 25.5628 13.7164 25.5628 17.5336L25.5609 25.3092ZM6.67404 9.19732C6.16386 9.19741 5.6651 9.0477 5.24085 8.76713C4.81659 8.48655 4.48592 8.08771 4.2906 7.62104C4.09528 7.15437 4.04409 6.64083 4.14353 6.14536C4.24297 5.64989 4.48857 5.19475 4.84926 4.83749C5.20995 4.48022 5.66954 4.23688 6.1699 4.13824C6.67026 4.0396 7.18891 4.09009 7.6603 4.28332C8.13168 4.47655 8.5346 4.80385 8.81812 5.22382C9.10164 5.64379 9.25302 6.13758 9.25311 6.64274C9.25317 6.97815 9.1865 7.31029 9.05692 7.62019C8.92735 7.93009 8.73741 8.21169 8.49792 8.44891C8.25843 8.68612 7.97408 8.87431 7.66114 9.00272C7.3482 9.13113 7.01279 9.19726 6.67404 9.19732ZM8.89657 25.3092H4.44688V11.1348H8.89657V25.3092ZM27.777 0.00184064H2.21325C1.63302 -0.0046427 1.07391 0.217226 0.658812 0.618693C0.243714 1.02016 0.00659304 1.56838 -0.000488281 2.14288V27.5598C0.00635068 28.1346 0.243333 28.6832 0.658416 29.0851C1.0735 29.487 1.63274 29.7093 2.21325 29.7032H27.777C28.3587 29.7104 28.9194 29.4887 29.3362 29.0869C29.7529 28.685 29.9915 28.1358 29.9995 27.5598V2.14105C29.9912 1.5654 29.7525 1.01656 29.3357 0.615106C28.919 0.213649 28.3584 -0.00758601 27.777 6.03397e-06" fill="#0A66C2"/>
</g>
<defs>
<clipPath id="clip0_285_59">
<rect width="33" height="32.8701" fill="white"/>
</clipPath>
</defs>
</svg>
